<svg id="Layer_1" data-name="Layer 1" xmlns="http://www.w3.org/2000/svg" viewBox="0 0 500 500">
	<g id="color">
		<path d="M212.51,388.68h0a6.09,6.09,0,0,1,4.92,7.07L207,454a6.09,6.09,0,0,1-7.07,4.92h0a6.08,6.08,0,0,1-4.92-7.06l10.42-58.21A6.09,6.09,0,0,1,212.51,388.68Z" style="fill:#dd7c39" />
		<path d="M237,388.93h0a6.08,6.08,0,0,1,7.24,4.66l12.53,57.79a6.1,6.1,0,0,1-4.66,7.24h0a6.11,6.11,0,0,1-7.25-4.66L232.3,396.17A6.08,6.08,0,0,1,237,388.93Z" style="fill:#dd7c39" />
		<polygon points="346.69 88.52 359.73 56.34 371.91 96.34 418 101.56 382.34 124.17 346.69 88.52" style="fill:#dd7c39" />
		<path d="M398.87,181.35a110.66,110.66,0,0,0-194.7-72C174,142.59,152,234.58,131,304.19,109.27,376.38,71,372,71,372s64.51,67,193.94,15.68C398.87,334.63,398.87,182.87,398.87,181.35Z" style="fill:#59c5e2" />
		<path d="M237,398s8.94-3,27.94-10.32C355,353,383,264,383,264s-48.46-5-104.15,44.54C230,352,237,398,237,398Z" style="fill:#89e1ef" />
		<path d="M302.47,248.77c-27.18,80.6-108.93,105.82-108.93,105.82s-31.31-57.4,1.51-143.77c11.18-29.41,43-45.22,72.69-34.74S312.53,219,302.47,248.77Z" style="fill:#6ed5ed" />
		<path d="M330.54,110.74a27,27,0,1,1-43.72,31.69,26.09,26.09,0,0,1-1.72-2.69" style="fill:none;stroke:#026d8e;stroke-linecap:round;stroke-miterlimit:10;stroke-width:5px" />
	</g>
	<g id="dots">
		<circle cx="360" cy="57" r="5" style="fill:#3c2f19" />
		<circle cx="374.61" cy="92" r="5" style="fill:#3c2f19" />
		<circle cx="416" cy="102" r="5" style="fill:#3c2f19" />
		<circle cx="382" cy="124" r="5" style="fill:#3c2f19" />
		<circle cx="347" cy="87" r="5" style="fill:#3c2f19" />
		<circle cx="398" cy="169" r="5" style="fill:#3c2f19" />
		<circle cx="394" cy="217" r="5" style="fill:#3c2f19" />
		<circle cx="382" cy="265" r="5" style="fill:#3c2f19" />
		<circle cx="357" cy="312" r="5" style="fill:#3c2f19" />
		<circle cx="325" cy="351" r="5" style="fill:#3c2f19" />
		<circle cx="286" cy="378" r="5" style="fill:#3c2f19" />
		<circle cx="239" cy="398" r="5" style="fill:#3c2f19" />
		<circle cx="245" cy="426" r="5" style="fill:#3c2f19" />
		<circle cx="251" cy="452" r="5" style="fill:#3c2f19" />
		<circle cx="210" cy="404" r="5" style="fill:#3c2f19" />
		<circle cx="205" cy="429" r="5" style="fill:#3c2f19" />
		<circle cx="201" cy="452" r="5" style="fill:#3c2f19" />
		<circle cx="178" cy="407" r="5" style="fill:#3c2f19" />
		<circle cx="140" cy="404" r="5" style="fill:#3c2f19" />
		<circle cx="106" cy="393" r="5" style="fill:#3c2f19" />
		<circle cx="72" cy="373" r="5" style="fill:#3c2f19" />
		<circle cx="109" cy="351" r="5" style="fill:#3c2f19" />
		<circle cx="128" cy="312" r="5" style="fill:#3c2f19" />
		<circle cx="141" cy="269" r="5" style="fill:#3c2f19" />
		<circle cx="154" cy="226" r="5" style="fill:#3c2f19" />
		<circle cx="167" cy="185" r="5" style="fill:#3c2f19" />
		<circle cx="181.29" cy="147.79" r="5" style="fill:#3c2f19" />
		<circle cx="201" cy="113" r="5" style="fill:#3c2f19" />
		<circle cx="232" cy="86" r="5" style="fill:#3c2f19" />
		<circle cx="269" cy="72" r="5" style="fill:#3c2f19" />
		<circle cx="310" cy="73" r="5" style="fill:#3c2f19" />
		<circle cx="332" cy="113" r="5" style="fill:#3c2f19" />
		<circle cx="330" cy="140" r="5" style="fill:#3c2f19" />
		<circle cx="309" cy="151" r="5" style="fill:#3c2f19" />
		<circle cx="285" cy="140" r="5" style="fill:#3c2f19" />
		<circle cx="266" cy="176" r="5" style="fill:#3c2f19" />
		<circle cx="294" cy="196" r="5" style="fill:#3c2f19" />
		<circle cx="305" cy="230" r="5" style="fill:#3c2f19" />
		<circle cx="294" cy="267" r="5" style="fill:#3c2f19" />
		<circle cx="269" cy="303" r="5" style="fill:#3c2f19" />
		<circle cx="236" cy="333" r="5" style="fill:#3c2f19" />
		<circle cx="194" cy="354" r="5" style="fill:#3c2f19" />
		<circle cx="182" cy="318" r="5" style="fill:#3c2f19" />
		<circle cx="181" cy="277" r="5" style="fill:#3c2f19" />
		<circle cx="185" cy="241" r="5" style="fill:#3c2f19" />
		<circle cx="199" cy="207" r="5" style="fill:#3c2f19" />
		<circle cx="225" cy="178" r="5" style="fill:#3c2f19" />
		<circle cx="241" cy="361" r="5" style="fill:#3c2f19" />
		<circle cx="264" cy="323" r="5" style="fill:#3c2f19" />
		<circle cx="294" cy="297" r="5" style="fill:#3c2f19" />
		<circle cx="335" cy="274" r="5" style="fill:#3c2f19" />
		<circle cx="366.65" cy="103" r="5" style="fill:#3c2f19" />
	</g>
</svg>
