<svg xmlns="http://www.w3.org/2000/svg" id="Layer_1" data-name="Layer 1" viewBox="0 0 507.74 558.23">
  <g id="shapes">
    <g transform="translate(300 300)">
    <g transform="translate(-300 -300) scale(2 2)">
      <path d="M349.92 74.15c-136.49 0-250.39 99.17-250.39 243.22 0 81.48 32.28 162.85 100.17 201.27v11.3c0 67.39 49 92.18 150 92.18s150.72-24.79 150.72-92.18v-11.3c68.36-37.71 100-119.79 100-201.27.05-144.05-114.02-243.22-250.5-243.22z" style="fill:#6dbfaf" transform="scale(0.5 0.5) translate(-96.42 -68.89)"/>
    </g>
    </g>
    <path d="M569.59 367.36A30.34 30.34 0 00539.93 337 30.33 30.33 0 00499 293a30.35 30.35 0 00-60.7 0 30.33 30.33 0 00-41 44.09 30.33 30.33 0 000 60.65 30.33 30.33 0 0041 44.09 30.35 30.35 0 0060.7 0 30.34 30.34 0 0041-44.09 30.34 30.34 0 0029.59-30.38z" style="fill:#f46862" transform="translate(-96.42 -68.89)"/>
    <path d="M332.38 367.36A30.34 30.34 0 00302.72 337a30.33 30.33 0 00-41-44.09 30.35 30.35 0 00-60.69 0 30.34 30.34 0 00-41 44.09 30.33 30.33 0 000 60.65 30.33 30.33 0 0041 44.09 30.35 30.35 0 0060.69 0 30.34 30.34 0 0041-44.09 30.34 30.34 0 0029.66-30.29z" style="fill:#f46862" transform="translate(-96.42 -68.89)"/>
    <path d="M302 367.37c0 40.93-31.63 74.12-70.64 74.12s-70.63-33.19-70.63-74.12 31.62-74.13 70.63-74.13S302 326.42 302 367.37z" style="fill:#482836" transform="translate(-96.42 -68.89)"/>
    <path d="M539.24 367.37c0 40.93-31.63 74.12-70.64 74.12S398 408.3 398 367.37s31.63-74.13 70.64-74.13 70.6 33.18 70.6 74.13z" style="fill:#482836" transform="translate(-96.42 -68.89)"/>
    <path d="M350 477.71c3.61 5.14 11.31 10.66 17.9 10.66 9.53 0 15.07-4.13 16-15.5.53-6.5-2.82-12.1-7.33-17.06l-24.3-21.47c-1.76-1.55-3.24-2-5-.44l-23.79 21.91c-4.42 5.33-8.33 11.7-7.18 18.47 1.59 9.37 6.8 14.09 16 14.09 6.54 0 14.07-5.52 17.7-10.66z" style="fill:#482836" transform="translate(-96.42 -68.89)" opacity="0.8"/>
    <path d="M259.71 184.82c-14.33-3.65-51.75-10.84-65.79 8.94-6.76 9.55-4.74 22.74 4.52 29.46a20.69 20.69 0 0029-5.1c4.83-6.41 17.79-22.8 32.33-29.62 3.05-1.41 3.11-2.88-.06-3.68z" style="fill:#603737" transform="translate(-96.42 -68.89)"/>
    <path d="M257.07 138.09a11.79 11.79 0 00-17.64 15.66c5.33 6 25.47 10.86 25.47 10.86s-2.52-20.55-7.83-26.52z" style="fill:#603737" transform="translate(-96.42 -68.89)"/>
    <path d="M412.47 158.78A24.43 24.43 0 00381.64 143a34.67 34.67 0 00-9.31 5.23 36.6 36.6 0 002.42-11.41 24.59 24.59 0 00-49.18-.05 36.59 36.59 0 002.43 11.4 34.2 34.2 0 00-9.26-5.21 24.59 24.59 0 00-15.26 46.75 32.12 32.12 0 009.11 1.25 32.81 32.81 0 00-7 6.6 24.59 24.59 0 0039.76 28.95 36.86 36.86 0 004.77-10.7 35.88 35.88 0 004.76 10.65 24.58 24.58 0 0039.81-28.85 33.54 33.54 0 00-7-6.65 31.54 31.54 0 009.09-1.24 24.48 24.48 0 0015.69-30.94z" style="fill:#f46862" transform="translate(-96.42 -68.89)"/>
    <path d="M370.67 177.69a20.52 20.52 0 11-20.51-20.51 20.52 20.52 0 0120.51 20.51z" style="fill:#ffce33" transform="translate(-96.42 -68.89)"/>
    <path d="M440.28 184.82c14.34-3.65 51.76-10.84 65.79 8.94 6.77 9.55 4.76 22.74-4.51 29.46a20.69 20.69 0 01-29-5.1c-4.84-6.41-17.79-22.8-32.34-29.62-3.03-1.41-3.11-2.88.06-3.68z" style="fill:#603737" transform="translate(-96.42 -68.89)"/>
    <path d="M442.93 138.09a11.79 11.79 0 0117.63 15.66c-5.33 6-25.46 10.86-25.46 10.86s2.52-20.55 7.83-26.52z" style="fill:#603737" transform="translate(-96.42 -68.89)"/>
  </g>
  <g id="decorations">
    <path d="M267.1 539.53c0-17.77-7.11-23.2-15.88-23.2-7.39 0-13.6 4.44-15.38 16.45a4.79 4.79 0 003.72 5.13c7.46 1.61 15.24 3 23.29 4.3 2.32.36 4.25-1.1 4.25-2.68z" style="fill:#fff3d2" transform="translate(-96.42 -68.89)"/>
    <path d="M235.85 547.19c1.79 12 8 16.41 15.37 16.41 6.19 0 11.56-2.71 14.18-10.87a3.72 3.72 0 00-3.19-4.74c-7.8-1.21-15.37-2.59-22.64-4.12-2.29-.48-4.06 1.01-3.72 3.32z" style="fill:#fff3d2" transform="translate(-96.42 -68.89)"/>
    <path d="M305.07 543.63c0-19.36-8-25.39-18-25.39-8.77 0-16.06 5.56-17.66 20.67a4.54 4.54 0 003.91 4.81q13.37 1.8 27.48 2.95c2.36.19 4.27-1.19 4.27-3.04z" style="fill:#fff3d2" transform="translate(-96.42 -68.89)"/>
    <path d="M269.67 553.23c2 13.63 9 18.7 17.42 18.7 7.64 0 14.17-3.67 16.78-15a3.73 3.73 0 00-3.49-4.51c-9.2-.75-18.21-1.72-26.95-2.87a3.14 3.14 0 00-3.76 3.68z" style="fill:#fff3d2" transform="translate(-96.42 -68.89)"/>
    <path d="M348.4 544.42c-1.42-18.14-9.77-24.75-19.88-24.75-9.84 0-18 6.27-19.76 23.35a4.16 4.16 0 003.94 4.5c10.36.63 20.95 1 31.66 1.11a3.93 3.93 0 004.04-4.21z" style="fill:#fff3d2" transform="translate(-96.42 -68.89)"/>
    <path d="M308.84 557.28c1.92 16.45 10 22.49 19.68 22.49 9.47 0 17.39-5 19.53-21.1a3.76 3.76 0 00-3.82-4.24q-16-.15-31.51-1.1a3.53 3.53 0 00-3.88 3.95z" style="fill:#fff3d2" transform="translate(-96.42 -68.89)"/>
    <path d="M391.7 543c-1.73-17.08-9.92-23.35-19.76-23.35-10.11 0-18.46 6.61-19.88 24.75a3.92 3.92 0 004 4.21c10.72-.1 21.3-.48 31.67-1.11a4.16 4.16 0 003.97-4.5z" style="fill:#fff3d2" transform="translate(-96.42 -68.89)"/>
    <path d="M352.41 558.67c2.13 16.07 10.06 21.1 19.53 21.1 9.68 0 17.76-6 19.68-22.49a3.53 3.53 0 00-3.89-3.94c-10.31.62-20.84 1-31.49 1.09a3.76 3.76 0 00-3.83 4.24z" style="fill:#fff3d2" transform="translate(-96.42 -68.89)"/>
    <path d="M396.59 557c2.61 11.29 9.13 15 16.78 15 8.38 0 15.41-5.07 17.42-18.7a3.14 3.14 0 00-3.76-3.64c-8.74 1.15-17.75 2.12-26.94 2.87a3.73 3.73 0 00-3.5 4.47z" style="fill:#fff3d2" transform="translate(-96.42 -68.89)"/>
    <path d="M435.05 552.73c2.63 8.16 8 10.87 14.19 10.87 7.38 0 13.57-4.44 15.37-16.41.34-2.31-1.44-3.8-3.72-3.32-7.27 1.53-14.84 2.9-22.64 4.12a3.74 3.74 0 00-3.2 4.74z" style="fill:#fff3d2" transform="translate(-96.42 -68.89)"/>
    <path d="M433.33 539.53c0-17.77 7.11-23.2 15.89-23.2 7.39 0 13.59 4.44 15.37 16.45a4.78 4.78 0 01-3.71 5.13q-11.22 2.42-23.3 4.3c-2.31.36-4.25-1.1-4.25-2.68z" style="fill:#fff3d2" transform="translate(-96.42 -68.89)"/>
    <path d="M395.37 543.63c0-19.36 8-25.39 18-25.39 8.77 0 16 5.56 17.65 20.67a4.53 4.53 0 01-3.91 4.81q-13.36 1.8-27.49 2.95c-2.35.19-4.25-1.19-4.25-3.04z" style="fill:#fff3d2" transform="translate(-96.42 -68.89)"/>
    
    <g id="decorations" opacity="0.75">
      <circle cx="253.74" cy="202.1" r="12.71" style="fill:#ffce33"/>
    </g>
  </g>
</svg>